<?xml version="1.0" encoding="UTF-8"?>
<svg width="443px" height="400px" viewBox="0 0 443 400" version="1.1" xmlns="http://www.w3.org/2000/svg" xmlns:xlink="http://www.w3.org/1999/xlink">
    <!-- Generator: Sketch 57.1 (83088) - https://sketch.com -->
    <title>firework_pechenko</title>
    <desc>Created with Sketch.</desc>
    <defs>
        <polygon id="path-1" points="0 0.654 13.7946 0.654 13.7946 14.685 0 14.685"></polygon>
    </defs>
    <g id="firework_pechenko" stroke="none" stroke-width="1" fill="none" fill-rule="evenodd">
        <g id="Group-410" transform="translate(12.000000, 25.000000)">
            <path d="M276.0817,381.9324 C264.3177,382.3794 248.6147,381.6264 228.9937,377.8534 C185.5977,369.5084 173.8727,349.6974 173.8727,349.6974 C173.8727,349.6974 184.4367,304.2584 213.9627,259.2464 C213.9627,259.2464 237.4307,245.4374 250.8147,246.9594 C264.1997,248.4824 304.7707,258.6194 304.7707,258.6194 C304.7707,258.6194 301.4487,278.2954 301.0607,279.1824 C300.6727,280.0694 291.5647,353.3124 291.5647,353.3124 L276.0817,381.9324 Z" id="Fill-1" fill="#F6B059"></path>
            <path d="M213.609,259.5652 C218.011,252.8542 223.187,245.8352 228.46,239.2952 C269.097,188.8922 321.646,251.0332 321.646,251.0332 C321.646,251.0332 297.453,314.4052 302.338,377.9562 C302.338,377.9562 293.56,381.2692 276.082,381.9322 C276.082,381.9322 276.292,321.8052 295.406,270.3712 C295.406,270.3712 275.461,256.2802 247.879,255.6062 C223.55,255.0112 213.609,259.5652 213.609,259.5652" id="Fill-3" fill="#CF7716"></path>
            <path d="M156.9079,196.0828 C158.2699,201.8948 160.8419,207.6488 165.1069,213.2528 C165.1069,213.2528 183.2709,231.5048 230.1239,239.0368 C276.9749,246.5678 309.6759,247.4868 331.0309,242.4598 C352.3869,237.4328 370.3409,215.7048 370.3409,215.7048 C377.0269,205.2468 401.5119,107.0708 400.9529,68.0888 C400.3939,29.1078 363.3799,16.5118 363.3799,16.5118 C352.5839,12.2238 339.7079,8.5288 324.3719,5.6518 C324.3719,5.6518 276.2789,0.3228 257.9899,2.0428 C239.6999,3.7638 205.1449,15.3788 196.8039,22.6128 C188.4649,29.8468 177.9369,54.4008 176.5809,62.5758 C175.2229,70.7508 172.7069,112.0138 171.1289,122.6278 C169.5509,133.2418 165.1189,151.5868 162.1549,160.5388 C159.1909,169.4898 156.5319,178.4688 156.5319,178.4688 L156.9079,196.0828 Z" id="Fill-5" fill="#F6B059"></path>
            <path d="M165.1071,213.2527 C167.9711,217.0157 171.4651,220.8837 176.1381,224.3097 C206.1071,246.2827 338.8301,264.8887 365.9471,241.5397 C392.0611,219.0547 412.5681,128.0127 417.3981,99.1137 C423.6751,61.5467 418.8551,38.5377 363.3791,16.5117 C363.3791,16.5117 384.4681,23.9767 385.6161,47.4387 C386.7641,70.9007 372.0361,165.4527 354.1931,203.9927 C336.3511,242.5327 309.3361,242.3067 272.7621,238.8107 C187.8521,230.6907 165.1071,213.2527 165.1071,213.2527" id="Fill-7" fill="#CF7716"></path>
            <path d="M218.7155,240.5613 C218.7155,240.5613 243.5135,245.9133 267.8865,248.5093 C297.1085,251.6243 322.2425,252.3693 322.2425,252.3693 C322.2425,252.3693 295.0165,256.0433 268.2055,253.4563 C241.3945,250.8683 218.7155,240.5613 218.7155,240.5613" id="Fill-9" fill="#AC5E11"></path>
            <path d="M324.3717,5.6516 C318.1457,4.4826 311.5157,3.4486 304.4537,2.5636 C237.9437,-5.7664 200.8287,6.4936 183.8847,35.1586 C169.9897,58.6636 171.6597,106.6166 166.7487,133.6296 C163.3657,152.2356 151.8667,174.5716 156.9077,196.0826 C156.9077,196.0826 157.5297,181.0176 162.7097,164.5846 C167.8897,148.1506 173.0977,134.7926 174.2597,118.6096 C175.4217,102.4246 177.7157,56.8396 189.6847,36.7186 C201.6537,16.5986 227.2457,9.4566 247.4867,6.0066 C278.0807,0.7936 324.3717,5.6516 324.3717,5.6516" id="Fill-11" fill="#FBD895"></path>
            <path d="M242.9674,273.6013 C242.9674,273.6013 237.3704,285.5913 250.2294,288.3983 C263.0874,291.2043 271.2514,275.7593 263.7324,270.5683 C256.2124,265.3773 242.9674,273.6013 242.9674,273.6013" id="Fill-13" fill="#CF7716"></path>
            <path d="M255.9547,265.9705 C241.7047,264.6765 237.3337,281.4915 250.4877,285.5545 C263.6417,289.6165 273.0247,267.5205 255.9547,265.9705" id="Fill-15" fill="#512A11"></path>
            <path d="M250.3971,267.8289 C245.5981,269.3589 246.4631,278.1659 251.3371,278.5439 C256.2121,278.9219 262.4781,276.4339 259.2631,269.9539 C257.6571,266.7129 253.9051,266.7099 250.3971,267.8289" id="Fill-17" fill="#6A3614"></path>
            <path d="M250.4508,267.7273 C247.0298,270.1713 249.8278,273.9503 253.4828,271.7813 C257.1398,269.6113 253.8738,265.2843 250.4508,267.7273" id="Fill-19" fill="#A85D2A"></path>
            <path d="M248.6041,272.78 C247.3781,272.355 246.7851,274.666 248.0551,274.781 C249.3271,274.896 250.2011,273.336 248.6041,272.78" id="Fill-21" fill="#A85D2A"></path>
            <path d="M280.1481,381.4685 C279.1911,381.1685 279.1541,379.8445 279.3091,378.8545 C282.6901,357.3135 286.7611,335.9065 291.2241,314.5645 C269.1241,332.9575 242.4111,345.7645 214.2311,351.4795 C213.5451,359.3545 212.7491,366.1215 212.9191,374.0265 C212.9671,373.5225 213.0151,373.0195 213.0641,372.5155 C217.7771,376.7985 223.4351,378.7095 229.7101,379.8035 C245.9601,382.6335 263.7211,382.9545 280.1481,381.4685" id="Fill-23" fill="#CF7716"></path>
            <path d="M212.9254,190.5632 C212.9254,190.5632 213.3834,215.7282 244.6574,218.5672 C275.9324,221.4062 288.3734,205.1822 293.8524,190.1392 C299.3304,175.0962 212.9254,190.5632 212.9254,190.5632" id="Fill-25" fill="#FBD895"></path>
            <path d="M217.4069,156.3743 C229.8809,159.6373 262.1609,166.9223 297.1059,165.5073 C298.6429,165.4453 301.5819,166.8183 301.1009,169.3793 C298.7729,181.8023 288.6409,217.9793 249.8109,216.0133 C206.2359,213.8083 208.7789,173.6993 211.0199,159.6623 C211.4989,156.6673 213.9039,155.4583 217.4069,156.3743" id="Fill-27" fill="#6A3614"></path>
            <path d="M297.3688,169.5662 C297.3688,169.5662 283.6528,170.3932 259.9648,167.8972 C238.6688,165.6522 219.9038,161.2382 216.2768,160.3042 C216.2768,160.3042 215.4758,169.8712 221.7208,172.6272 C229.1078,175.8872 277.9948,183.2622 294.0078,180.9162 C294.0078,180.9162 296.7778,174.1742 297.3688,169.5662" id="Fill-29" fill="#FFFFFF"></path>
            <path d="M277.5446,197.7253 C277.5446,197.7253 283.0386,187.6033 276.9206,184.6313 C273.7126,183.0733 270.1946,182.6393 266.4426,184.9753 C264.5696,186.1413 265.6786,188.7233 264.8786,189.8413 C263.1976,192.1913 259.7016,190.7533 261.0176,187.6773 C262.3326,184.6013 258.7126,182.6333 254.7036,183.0463 C250.6946,183.4593 245.1136,192.6223 251.1716,198.1803 C257.2286,203.7373 277.5446,197.7253 277.5446,197.7253" id="Fill-31" fill="#512A11"></path>
            <path d="M282.0446,200.4646 C282.0446,200.4646 278.8446,194.8206 270.9896,193.8496 C263.1356,192.8766 256.9866,198.7936 256.9866,198.7936 C256.9866,198.7936 253.3266,194.4036 246.6246,194.0546 C239.9226,193.7046 232.0156,199.0296 229.6336,206.2386 C229.6336,206.2386 239.5706,212.9246 254.9176,212.0736 C273.2266,211.0606 282.0446,200.4646 282.0446,200.4646" id="Fill-33" fill="#C21617"></path>
            <path d="M256.9869,198.7937 C256.9869,198.7937 252.9859,201.9707 251.6319,204.5237 C251.6319,204.5237 251.6239,199.8597 254.9159,196.8787 C254.9159,196.8787 256.5589,197.8057 256.9869,198.7937" id="Fill-35" fill="#8C191E"></path>
            <path d="M216.277,160.3044 C216.277,160.3044 250.693,169.2144 297.369,169.5664 C297.369,169.5664 297.057,172.0404 296.606,173.2094 C296.606,173.2094 267.166,171.3134 252.53,169.8984 C237.895,168.4844 216.324,163.5904 216.324,163.5904 C216.324,163.5904 215.904,161.5664 216.277,160.3044" id="Fill-37" fill="#DAC7CD"></path>
            <path d="M246.0553,196.8816 C248.0913,197.8276 246.2833,198.0396 245.0183,198.8886 C243.7533,199.7376 240.5583,201.1196 239.8573,200.0626 C239.1553,199.0036 243.2473,195.5796 246.0553,196.8816" id="Fill-39" fill="#EE1824"></path>
            <path d="M238.8922,200.6209 C239.6512,200.8659 239.1712,202.4509 238.2252,202.0619 C237.2772,201.6739 237.7862,200.2649 238.8922,200.6209" id="Fill-41" fill="#EE1824"></path>
            <path d="M257.0592,56.7317 C257.0592,56.7317 256.4522,69.0367 250.7442,71.7707 C245.0372,74.5037 229.5342,70.1767 218.5062,71.4597 C207.4802,72.7427 196.7272,77.6927 194.0982,71.7167 C191.4702,65.7397 194.3932,60.2177 195.1392,59.8897 C195.8852,59.5617 257.0592,56.7317 257.0592,56.7317" id="Fill-43" fill="#CF7716"></path>
            <path d="M255.3502,48.7922 C260.1942,50.2852 257.5072,58.7662 254.3392,63.7262 C251.1702,68.6872 247.8982,68.3422 242.8032,67.9082 C237.7072,67.4742 220.2932,64.8782 209.2802,67.7152 C198.2672,70.5532 194.3082,71.1812 192.9712,68.6472 C191.6332,66.1142 190.4392,58.8362 196.5212,55.9392 C202.6032,53.0422 224.6612,39.3302 255.3502,48.7922" id="Fill-45" fill="#6A3614"></path>
            <path d="M255.4323,48.9783 C255.4323,48.9783 256.2373,54.8653 253.0093,59.1833 C249.7823,63.5013 246.4723,62.0583 238.7243,61.6763 C230.9773,61.2953 216.5793,60.4923 207.5173,62.6953 C198.4543,64.8983 193.2013,67.6533 192.1503,61.2063 C192.1503,61.2063 190.8503,65.3433 192.4333,68.4373 C194.0163,71.5323 198.2223,71.4643 201.8313,70.5463 C205.4403,69.6283 217.0953,66.7303 223.2063,66.9403 C229.3183,67.1513 246.6943,68.6483 249.4523,68.3283 C252.2093,68.0073 255.9153,63.2563 257.4033,59.0353 C258.8903,54.8143 259.8403,50.3833 255.4323,48.9783" id="Fill-47" fill="#512A11"></path>
            <path d="M251.2936,50.4641 C253.4496,52.6361 250.1376,60.0011 248.7706,59.9331 C247.4026,59.8661 251.1916,52.5151 246.1606,51.7181 C241.1296,50.9221 233.7326,50.8311 234.2366,48.9371 C234.7416,47.0441 248.2906,47.4381 251.2936,50.4641" id="Fill-49" fill="#B1622B"></path>
            <path d="M231.3795,48.5222 C230.5095,47.1222 224.9465,48.3422 226.8075,49.5302 C228.6675,50.7182 232.5225,50.3602 231.3795,48.5222" id="Fill-51" fill="#B1622B"></path>
            <path d="M227.8502,93.5329 C227.8502,93.5329 232.4082,101.2709 233.0252,113.6949 C233.6412,126.1179 230.6012,139.5619 225.7972,144.3509 C220.9942,149.1399 207.2172,151.8079 196.6752,145.0779 C186.1322,138.3469 192.2802,122.9339 192.2802,122.9339 L227.8502,93.5329 Z" id="Fill-53" fill="#CF7716"></path>
            <path d="M222.1686,84.9133 C231.7896,86.4643 230.8956,110.4623 228.9326,123.1953 C226.9696,135.9283 222.8626,144.1223 213.7526,144.4863 C204.6416,144.8513 190.4856,140.7333 189.0686,131.3113 C187.6506,121.8903 196.8296,80.8253 222.1686,84.9133" id="Fill-55" fill="#6A3614"></path>
            <path d="M228.7789,94.0051 C228.7789,94.0051 229.2199,115.8951 220.5009,130.4541 C214.5239,140.4331 206.1229,141.3021 199.8399,138.7421 C188.5349,134.1361 188.9549,129.1461 188.9549,129.1461 C188.9549,129.1461 187.5319,134.2571 193.3409,139.0841 C199.1509,143.9111 213.6829,147.5481 220.8469,143.0571 C228.0099,138.5661 229.7899,120.2011 230.5149,114.5781 C232.2499,101.1461 228.7789,94.0051 228.7789,94.0051" id="Fill-57" fill="#512A11"></path>
            <path d="M221.7995,92.1516 C217.7955,87.9336 210.2115,95.5016 205.8245,108.0156 C201.4385,120.5296 208.5355,128.8346 215.3105,127.1516 C222.0835,125.4686 230.5305,101.3516 221.7995,92.1516" id="Fill-59" fill="#B1622B"></path>
            <path d="M201.7428,139.4578 C201.7428,139.4578 191.7248,138.3328 189.0688,131.3118 C189.0688,131.3118 196.2758,137.4968 201.7428,139.4578" id="Fill-61" fill="#B1622B"></path>
            <path d="M222.7975,91.3782 C219.7185,89.8832 218.2405,95.1932 219.4255,99.6292 C220.6105,104.0652 220.4895,106.6952 223.1715,107.2462 C225.8535,107.7972 229.2775,94.5262 222.7975,91.3782" id="Fill-63" fill="#FFFFFF"></path>
            <path d="M222.9127,110.5466 C220.7387,109.2626 219.2157,114.2586 221.0377,114.9126 C222.8597,115.5666 226.9007,112.9026 222.9127,110.5466" id="Fill-65" fill="#FFFFFF"></path>
            <path d="M331.1324,104.5051 C331.1324,104.5051 347.4814,113.1131 346.7884,133.4341 C346.0964,153.7561 343.9404,163.9941 330.7144,164.1721 C317.4884,164.3501 298.7424,158.1501 302.2884,141.4791 C305.8344,124.8091 331.1324,104.5051 331.1324,104.5051" id="Fill-67" fill="#CF7716"></path>
            <path d="M316.9342,100.5378 C307.7502,103.5498 303.5892,117.8318 302.3312,128.0808 C301.0752,138.3308 299.6802,152.9638 313.8782,157.9068 C328.0762,162.8508 339.8462,161.4928 342.4802,149.8118 C345.1132,138.1308 341.5682,92.4588 316.9342,100.5378" id="Fill-69" fill="#6A3614"></path>
            <path d="M334.0065,106.3591 C334.0065,106.3591 342.4625,120.6011 339.0105,140.5841 C336.0325,157.8191 323.0055,155.3271 316.7515,154.0581 C304.2565,151.5241 301.773491,142.4171 301.773491,142.4171 C301.773491,142.4171 301.7025,154.4121 314.4215,158.3731 C327.1395,162.3341 337.8015,161.8401 341.1345,154.2481 C344.4665,146.6541 346.5045,121.8971 334.0065,106.3591" id="Fill-71" fill="#512A11"></path>
            <path d="M326.9987,106.3987 C334.7157,108.6787 340.7727,135.9977 325.1087,136.4767 C309.4457,136.9557 313.8477,123.0907 316.2317,115.8807 C318.6167,108.6717 323.5227,105.3727 326.9987,106.3987" id="Fill-73" fill="#B1622B"></path>
            <path d="M339.191,139.1043 C339.191,139.1043 339.846,150.8883 333.389,154.5973 C326.932,158.3073 317.503,154.4493 317.503,154.4493 C317.503,154.4493 334.578,157.1443 339.191,139.1043" id="Fill-75" fill="#B1622B"></path>
            <path d="M332.4801,109.1687 C330.7071,107.6537 328.7511,109.6267 328.9431,113.3847 C329.1351,117.1467 330.7501,124.2397 332.6651,124.4137 C335.2961,124.6527 338.5331,114.3517 332.4801,109.1687" id="Fill-77" fill="#FFFFFF"></path>
            <path d="M335.4596,125.4729 C333.7306,124.3939 332.4746,128.8909 334.1676,130.0309 C335.8606,131.1649 338.0476,127.0889 335.4596,125.4729" id="Fill-79" fill="#FFFFFF"></path>
            <path d="M313.7203,61.4001 C313.7203,61.4001 305.4363,78.1671 316.7153,82.5711 C327.9943,86.9761 337.1963,90.5771 343.4313,96.3681 C349.6673,102.1591 356.0973,109.1971 363.3293,107.3951 C370.5623,105.5931 370.2833,95.1181 368.1773,91.2391 C366.0713,87.3591 324.2513,67.2741 324.2513,67.2741 L313.7203,61.4001 Z" id="Fill-81" fill="#CF7716"></path>
            <path d="M324.2311,53.9553 C315.0381,50.4793 314.0351,57.9473 313.1491,63.1933 C312.2621,68.4403 310.9321,74.0583 317.2511,76.6803 C323.5701,79.3013 334.3961,81.9243 348.1431,93.0073 C359.7771,102.3873 360.9281,105.6423 365.3251,102.3523 C369.7211,99.0633 370.4251,94.4873 367.0601,87.7573 C362.5501,78.7433 345.6261,62.0443 324.2311,53.9553" id="Fill-83" fill="#6A3614"></path>
            <path d="M313.609,62.6194 C313.609,62.6194 316.243,70.8494 323.947,74.0074 C331.652,77.1654 343.707,83.1784 351.356,90.3264 C359.005,97.4744 361.916,99.2764 365.38,98.3614 C368.843,97.4464 369.009,95.6174 369.009,95.6174 C369.009,95.6174 368.677,102.6564 363.939,104.0694 C359.201,105.4834 350.941,94.8984 345.426,91.3254 C339.911,87.7504 323.449,79.4944 318.96,78.1654 C314.47,76.8354 310.23,72.7624 313.609,62.6194" id="Fill-85" fill="#512A11"></path>
            <path d="M324.8317,57.4914 C320.3937,57.0884 319.2627,57.9084 318.0437,61.1784 C316.8237,64.4484 319.2907,67.7454 320.5657,67.2464 C321.8407,66.7474 320.0107,59.8194 323.0597,60.0964 C326.1067,60.3734 332.4267,65.2494 333.4787,63.8084 C334.5317,62.3674 327.2707,57.7124 324.8317,57.4914" id="Fill-87" fill="#B1622B"></path>
            <path d="M338.2731,65.1658 C340.2011,65.3408 338.8561,68.9068 337.7471,67.5768 C336.6381,66.2468 335.2251,64.8888 338.2731,65.1658" id="Fill-89" fill="#B1622B"></path>
            <path d="M113.8161,178.2932 L105.4941,179.4812 C103.6901,179.7392 101.9991,178.3442 101.7161,176.3652 L98.0321,150.5582 C97.7081,148.2852 98.2921,145.9962 99.6341,144.2742 L110.3341,130.5562 L116.5701,174.2452 C116.8531,176.2232 115.6201,178.0362 113.8161,178.2932" id="Fill-91" fill="#FF6B00"></path>
            <path d="M144.3913,173.9285 L152.7133,172.7405 C154.5173,172.4825 155.7503,170.6705 155.4683,168.6915 L151.7843,142.8845 C151.4593,140.6115 150.2583,138.5765 148.4873,137.2995 L134.3763,127.1235 L140.6143,170.8125 C140.8963,172.7905 142.5873,174.1855 144.3913,173.9285" id="Fill-93" fill="#FF6B00"></path>
            <path d="M101.1715,154.1726 C101.3765,154.5086 101.7335,154.8696 102.0595,154.6996 C102.1915,154.6306 102.2755,154.4886 102.3465,154.3486 C103.0695,152.9106 102.9625,151.1376 103.3825,149.5556 C103.8785,147.6856 105.0995,146.1276 105.5205,144.2336 C105.5905,143.9206 105.6355,143.5826 105.5295,143.2766 C104.4485,140.1456 101.4915,143.9506 100.9765,145.1936 C99.7725,148.0956 99.4195,151.3106 101.1715,154.1726" id="Fill-95" fill="#FFB359"></path>
            <path d="M143.4909,137.4519 C143.7629,137.6289 144.0499,137.8079 144.3619,137.8329 C144.6749,137.8579 145.0199,137.6789 145.0949,137.3479 C145.1389,137.1469 145.0789,136.9329 145.0069,136.7389 C144.4289,135.1839 143.0169,134.0229 141.4999,133.8539 C140.5159,133.7439 139.7749,134.6429 140.5729,135.5029 C141.3069,136.2949 142.6019,136.8749 143.4909,137.4519" id="Fill-97" fill="#FF3548"></path>
            <path d="M150.0387,141.4695 C150.7637,143.0585 151.2457,144.7745 151.4597,146.5225 C151.512681,146.9465 151.5477,147.3825 151.4557,147.7935 C151.3627,148.2045 151.1207,148.5945 150.7577,148.7395 C150.0437,149.0265 149.2817,148.2535 149.0597,147.4435 C148.8387,146.6345 148.9367,145.7655 148.7507,144.9475 C148.4437,143.6055 147.4377,142.6045 146.6147,141.5425 C146.3247,141.1675 146.0447,140.7595 145.9497,140.2825 C145.8537,139.8075 145.9937,139.2495 146.3817,139.0235 C147.6607,138.2765 149.5297,140.3525 150.0387,141.4695" id="Fill-99" fill="#FF3548"></path>
            <path d="M128.9645,86.9299 L139.0325,157.4519 L114.3505,160.9759 L104.2815,90.4539 C106.1415,90.6029 107.9945,90.6619 109.8515,90.6279 C114.3615,90.5449 118.8405,89.9209 123.1985,88.7759 C125.1495,88.2669 127.0755,87.6529 128.9645,86.9299" id="Fill-101" fill="#FF7F15"></path>
            <polygon id="Fill-103" fill="#FFB359" points="123.1989 88.7756 126.2839 110.3836 112.9439 112.2886 109.8589 90.6806"></polygon>
            <polygon id="Fill-105" fill="#FFB359" points="115.7243 131.7634 129.0643 129.8594 133.1233 158.2954 119.7843 160.2004"></polygon>
            <path d="M128.0954,80.8401 L129.2874,89.1911 C127.3994,89.9141 125.4714,90.5281 123.5224,91.0371 C119.1634,92.1821 114.6844,92.8061 110.1744,92.8881 C108.3184,92.9231 106.4634,92.8641 104.6044,92.7151 L103.4114,84.3641 L128.0954,80.8401 Z" id="Fill-107" fill="#FF6B00"></path>
            <path d="M138.611,154.4973 L140.024,164.3933 C138.135,165.1163 136.208,165.7303 134.258,166.2393 C129.9,167.3843 125.421,168.0083 120.911,168.0913 C119.054,168.1253 117.2,168.0673 115.34,167.9173 L113.928,158.0213 C115.788,158.1713 117.641,158.2293 119.498,158.1953 C124.007,158.1123 128.487,157.4883 132.845,156.3433 C134.796,155.8343 136.722,155.2213 138.611,154.4973" id="Fill-109" fill="#101010"></path>
            <path d="M135.6246,83.9104 C133.4586,85.0654 131.2336,86.0754 128.9646,86.9304 C127.0756,87.6534 125.1486,88.2664 123.1986,88.7754 C118.8406,89.9214 114.3616,90.5454 109.8516,90.6274 C107.9946,90.6614 106.1416,90.6034 104.2816,90.4534 C101.8556,90.2694 99.4376,89.9224 97.0436,89.4184 L112.0526,56.7054 L135.6246,83.9104 Z" id="Fill-111" fill="#F8C400"></path>
            <path d="M132.8454,156.3435 L134.2584,166.2395 C129.9004,167.3845 125.4204,168.0085 120.9104,168.0915 L119.4974,158.1955 C124.0074,158.1125 128.4874,157.4885 132.8454,156.3435" id="Fill-113" fill="#323232"></path>
            <path d="M123.1989,88.7756 C118.8409,89.9216 114.3619,90.5456 109.8509,90.6276 L112.0529,56.7056 L123.1989,88.7756 Z" id="Fill-115" fill="#FFDE00"></path>
            <polygon id="Fill-117" fill="#FFDE00" points="126.2838 110.384 129.0638 129.859 115.7238 131.763 112.9438 112.288"></polygon>
            <polygon id="Fill-119" fill="#F8C400" points="107.5094 113.0642 112.9444 112.2882 115.7244 131.7632 110.2894 132.5392"></polygon>
            <polygon id="Fill-121" fill="#F8C400" points="132.193 109.5403 134.973 129.0153 129.064 129.8593 126.284 110.3843"></polygon>
            <path d="M122.6002,128.1902 L122.6002,128.1902 C121.0362,128.4132 119.9492,129.8622 120.1722,131.4272 L126.6892,177.0682 C126.9122,178.6332 128.3612,179.7202 129.9252,179.4972 C131.4902,179.2732 132.5772,177.8242 132.3532,176.2602 L125.8372,130.6182 C125.6142,129.0542 124.1642,127.9672 122.6002,128.1902" id="Fill-123" fill="#FF6B00"></path>
            <path d="M125.0387,145.2673 L125.0387,145.2673 C124.2467,145.3803 123.6967,146.1143 123.8097,146.9053 L128.2877,178.2683 C128.4007,179.0593 129.1337,179.6093 129.9257,179.4963 C130.7167,179.3833 131.2677,178.6503 131.1537,177.8593 L126.6767,146.4963 C126.5627,145.7043 125.8297,145.1543 125.0387,145.2673" id="Fill-125" fill="#FFB359"></path>
            <polygon id="Fill-127" fill="#F2C697" points="121.734 161.3489 117.021 161.8219 127.523 266.3869 132.237 265.9129"></polygon>
            <path d="M225.4411,228.9148 L205.6381,213.3428 L84.0091,226.7268 L69.3511,248.8428 L79.5141,267.4708 C79.5141,267.4708 200.2081,256.4598 200.4901,255.3968 C200.7711,254.3338 225.4411,228.9148 225.4411,228.9148" id="Fill-129" fill="#BE7C46"></path>
            <path d="M84.0075,226.7283 L67.2355,249.0733 C69.2715,248.5043 70.9875,246.9253 72.9275,245.6713 L84.0075,226.7283 Z" id="Fill-131" fill="#F2C697"></path>
            <polyline id="Fill-133" fill="#704525" points="84.0075 226.7283 79.5145 267.4703 211.9865 254.2493 205.6385 213.3423"></polyline>
            <path d="M178.1735,271.7273 L188.0375,271.842566 C190.1745,271.8683 191.9295,269.9873 191.9575,267.6423 L192.3155,237.0563 C192.3465,234.3633 191.3195,231.7893 189.4945,229.9903 L174.9585,215.6593 L174.3535,267.4363 C174.3255,269.7813 176.0355,271.7023 178.1735,271.7273" id="Fill-135" fill="#55BA13"></path>
            <path d="M183.6735,229.2703 C183.9575,229.5243 184.2575,229.7833 184.6155,229.8693 C184.9735,229.9543 185.4055,229.8073 185.5515,229.4383 C185.6405,229.2123 185.6085,228.9543 185.5595,228.7143 C185.1675,226.8093 183.7385,225.2083 182.0105,224.7413 C180.8895,224.4373 179.8685,225.3463 180.6395,226.4873 C181.3495,227.5373 182.7465,228.4413 183.6735,229.2703" id="Fill-137" fill="#85DF14"></path>
            <path d="M190.5455,235.1033 C191.1005,237.0773 191.3515,239.1523 191.2865,241.2173 C191.2715,241.7183 191.2335,242.2303 191.0535,242.6903 C190.8725,243.1513 190.5225,243.5583 190.0745,243.6623 C189.1945,243.8673 188.4495,242.8333 188.3385,241.8553 C188.2275,240.8773 188.4975,239.8873 188.4275,238.9043 C188.3135,237.2943 187.3255,235.9533 186.5625,234.5743 C186.2925,234.0873 186.0415,233.5633 186.0165,232.9943 C185.9915,232.4253 186.2535,231.8033 186.7425,231.6113 C188.3605,230.9743 190.1555,233.7163 190.5455,235.1033" id="Fill-139" fill="#85DF14"></path>
            <path d="M141.9381,271.303746 L132.0741,271.1885 C129.9371,271.1635 128.2261,269.2425 128.2531,266.8985 L128.6111,236.3125 C128.6431,233.6185 129.7301,231.0685 131.5961,229.3135 L146.4631,215.3255 L145.8581,267.1035 C145.8311,269.4485 144.0761,271.3285 141.9381,271.303746" id="Fill-141" fill="#55BA13"></path>
            <path d="M175.8932,168.0823 L174.9162,251.6613 L145.6642,251.3193 L146.6402,167.7403 C148.7692,168.2473 150.9092,168.6473 153.0672,168.9413 C158.3122,169.6543 163.6182,169.7343 168.8762,169.1883 C171.2292,168.9483 173.5742,168.5823 175.8932,168.0823" id="Fill-143" fill="#85DF14"></path>
            <path d="M131.6032,241.0662 C131.7812,241.4932 132.1282,241.9752 132.5392,241.8372 C132.7042,241.7812 132.8272,241.6312 132.9332,241.4822 C134.0302,239.9442 134.2242,237.8682 134.9952,236.1092 C135.9062,234.0302 137.6002,232.4422 138.4292,230.3222 C138.5662,229.9712 138.6792,229.5872 138.6122,229.2132 C137.9192,225.3892 133.8082,229.2712 132.9872,230.6202 C131.0702,233.7692 130.0852,237.4342 131.6032,241.0662" id="Fill-145" fill="#85DF14"></path>
            <polygon id="Fill-147" fill="#B6F45D" points="168.8766 169.1882 168.5776 194.7962 152.7676 194.6122 153.0666 169.0032"></polygon>
            <polygon id="Fill-149" fill="#B6F45D" points="152.4977 217.6931 168.3077 217.8781 167.9137 251.5791 152.1027 251.3941"></polygon>
            <path d="M175.9782,160.865 L175.8622,170.762 C173.5422,171.262 171.1982,171.628 168.8452,171.868 C163.5862,172.414 158.2812,172.334 153.0362,171.621 C150.8772,171.327 148.7382,170.927 146.6092,170.42 L146.7252,160.523 L175.9782,160.865 Z" id="Fill-151" fill="#55BA13"></path>
            <path d="M174.9577,248.1599 L174.8197,259.8879 C172.5007,260.3879 170.1557,260.7539 167.8037,260.9939 C162.5447,261.5399 157.2387,261.4599 151.9947,260.7469 C149.8357,260.4529 147.6967,260.0539 145.5667,259.5459 L145.7047,247.8179 C147.8337,248.3249 149.9737,248.7249 152.1317,249.0179 C157.3757,249.7319 162.6817,249.8109 167.9407,249.2649 C170.2927,249.0249 172.6387,248.6599 174.9577,248.1599" id="Fill-153" fill="#101010"></path>
            <path d="M184.1569,165.7756 C181.4389,166.7266 178.6779,167.4986 175.8929,168.0826 C173.5739,168.5826 171.2289,168.9476 168.8769,169.1886 C163.6179,169.7336 158.3119,169.6546 153.0669,168.9416 C150.9089,168.6476 148.7689,168.2476 146.6399,167.7406 C143.8609,167.0916 141.1189,166.2546 138.4329,165.2406 L161.7059,130.0026 L184.1569,165.7756 Z" id="Fill-155" fill="#009CDE"></path>
            <path d="M167.9411,249.2654 L167.8031,260.9944 C162.5451,261.5394 157.2391,261.4594 151.9951,260.7464 L152.1311,249.0184 C157.3761,249.7324 162.6811,249.8114 167.9411,249.2654" id="Fill-157" fill="#323232"></path>
            <path d="M168.8766,169.1882 C163.6176,169.7342 158.3126,169.6542 153.0666,168.9412 L161.7056,130.0022 L168.8766,169.1882 Z" id="Fill-159" fill="#00C9FF"></path>
            <polygon id="Fill-161" fill="#00C9FF" points="168.5778 194.7966 168.3068 217.8776 152.4978 217.6926 152.7668 194.6116"></polygon>
            <polygon id="Fill-163" fill="#009CDE" points="146.3268 194.5369 152.7668 194.6119 152.4978 217.6929 146.0568 217.6179"></polygon>
            <polygon id="Fill-165" fill="#009CDE" points="175.5807 194.8787 175.3097 217.9597 168.3077 217.8777 168.5777 194.7967"></polygon>
            <path d="M161.112,214.78278 L161.112,214.78278 C159.258,214.762 157.738,216.247 157.716,218.1 L157.084,272.193 C157.062,274.047 158.548,275.567 160.401,275.589241 C162.256,275.611 163.775,274.126 163.798,272.271 L164.429,218.179 C164.451,216.325 162.966,214.805 161.112,214.78278" id="Fill-167" fill="#55BA13"></path>
            <path d="M160.8756,235.022081 L160.8756,235.022081 C159.9376,235.0112 159.1676,235.7632 159.1566,236.7012 L158.7226,273.8712 C158.7116,274.8082 159.4636,275.5782 160.4006,275.588342 C161.3396,275.6002 162.1086,274.8482 162.1196,273.9102 L162.5546,236.7412 C162.5646,235.8022 161.8126,235.0332 160.8756,235.022081" id="Fill-169" fill="#85DF14"></path>
            <polygon id="Fill-171" fill="#FC89E4" points="153.8375 250.8962 133.0825 252.2362 129.4215 195.5512 150.1775 194.2112"></polygon>
            <polygon id="Fill-173" fill="#FFADFF" points="145.3668 196.9871 134.1498 197.7121 137.6208 251.4661 148.8388 250.7421"></polygon>
            <path d="M150.3414,194.2966 C149.1234,194.8296 147.8794,195.2816 146.6174,195.6496 C145.5674,195.9606 144.5004,196.2116 143.4254,196.4046 C141.0244,196.8406 138.5774,196.9906 136.1384,196.8466 C135.1344,196.7866 134.1354,196.6786 133.1374,196.5196 C131.8344,196.3176 130.5424,196.0296 129.2704,195.6566 L138.7464,178.6146 L150.3414,194.2966 Z" id="Fill-175" fill="#101010"></path>
            <path d="M143.4254,196.405 C141.0244,196.841 138.5774,196.991 136.1384,196.846 L138.7464,178.615 L143.4254,196.405 Z" id="Fill-177" fill="#323232"></path>
            <path d="M153.525,246.0554 L154.062,254.3764 C152.445,254.8564 150.802,255.2434 149.148,255.5394 C145.45,256.2114 141.684,256.4424 137.928,256.2204 C136.381,256.1284 134.843,255.9604 133.307,255.7164 L132.77,247.3954 C134.306,247.6404 135.844,247.8084 137.39,247.8994 C141.147,248.1204 144.912,247.8904 148.611,247.2194 C150.265,246.9214 151.908,246.5344 153.525,246.0554" id="Fill-179" fill="#101010"></path>
            <path d="M148.611,247.2195 L149.148,255.5395 C145.45,256.2115 141.684,256.4425 137.928,256.2205 L137.39,247.8995 C141.147,248.1205 144.912,247.8905 148.611,247.2195" id="Fill-181" fill="#323232"></path>
            <polygon id="Fill-183" fill="#F2C697" points="141.9489 250.0701 137.2209 250.3761 143.9929 355.2481 148.7199 354.9421"></polygon>
            <polygon id="Fill-185" fill="#9E39CB" points="96.9801 130.135 77.1831 136.512 59.7651 82.447 79.5621 76.069"></polygon>
            <polygon id="Fill-187" fill="#D396F2" points="75.5778 79.9368 64.8778 83.3838 81.3958 134.6558 92.0958 131.2088"></polygon>
            <path d="M79.7418,76.1111 C78.6918,76.9261 77.5958,77.6691 76.4628,78.3331 C75.5198,78.8931 74.5478,79.3971 73.5528,79.8471 C71.3298,80.8581 68.9958,81.6011 66.5948,82.0581 C65.6058,82.2471 64.6108,82.3851 63.6038,82.4761 C62.2918,82.5991 60.9698,82.6351 59.6438,82.5861 L64.6638,63.7431 L79.7418,76.1111 Z" id="Fill-189" fill="#101010"></path>
            <path d="M73.5524,79.8474 C71.3294,80.8574 68.9954,81.6014 66.5944,82.0584 L64.6634,63.7434 L73.5524,79.8474 Z" id="Fill-191" fill="#323232"></path>
            <path d="M95.4928,125.5178 L98.0498,133.4548 C96.5978,134.3158 95.0998,135.0918 93.5688,135.7858 C90.1468,137.3418 86.5528,138.4858 82.8558,139.1898 C81.3348,139.4798 79.8028,139.6928 78.2528,139.8318 L75.6958,131.8948 C77.2458,131.7568 78.7778,131.5428 80.2998,131.2528 C83.9958,130.5488 87.5908,129.4048 91.0128,127.8488 C92.5438,127.1548 94.0418,126.3788 95.4928,125.5178" id="Fill-193" fill="#101010"></path>
            <path d="M91.0123,127.8484 L93.5693,135.7854 C90.1473,137.3414 86.5523,138.4864 82.8563,139.1894 L80.2993,131.2534 C83.9953,130.5494 87.5903,129.4044 91.0123,127.8484" id="Fill-195" fill="#323232"></path>
            <polygon id="Fill-197" fill="#F2C697" points="85.2496 132.2429 80.7406 133.6959 112.9656 233.7229 117.4746 232.2709"></polygon>
            <path d="M97.3756,275.7214 L88.0216,278.8514 C85.9936,279.5294 83.7476,278.2764 83.0036,276.0524 L73.2986,247.0444 C72.4436,244.4914 72.6336,241.7254 73.8196,239.4544 L83.2706,221.3614 L99.6986,270.4664 C100.4426,272.6904 99.4026,275.0424 97.3756,275.7214" id="Fill-199" fill="#C21617"></path>
            <path d="M131.7409,264.2234 L141.0959,261.0934 C143.1229,260.4154 144.1639,258.0634 143.4199,255.8394 L133.7149,226.8314 C132.8599,224.2774 131.0439,222.1824 128.7299,221.0824 L110.2949,212.3194 L126.7229,261.4254 C127.4679,263.6494 129.7149,264.9024 131.7409,264.2234" id="Fill-201" fill="#C21617"></path>
            <path d="M77.6852,250.5535 C77.9932,250.8985 78.4802,251.2405 78.8222,250.9745 C78.9592,250.8665 79.0272,250.6855 79.0792,250.5095 C79.6092,248.6975 79.1112,246.6725 79.2612,244.7575 C79.4382,242.4945 80.5182,240.4385 80.6052,238.1635 C80.6192,237.7875 80.6002,237.3875 80.4142,237.0575 C78.5042,233.6715 75.8952,238.6885 75.5632,240.2325 C74.7862,243.8355 75.0592,247.6205 77.6852,250.5535" id="Fill-203" fill="#FF3548"></path>
            <path d="M122.9957,222.3142 C123.3477,222.4602 123.7157,222.6072 124.0817,222.5702 C124.4477,222.5332 124.8077,222.2522 124.8247,221.8562 C124.8347,221.6142 124.7187,221.3802 124.5947,221.1702 C123.5997,219.4992 121.7247,218.4572 119.9377,218.5822 C118.7787,218.6642 118.1137,219.8572 119.2157,220.6812 C120.2297,221.4402 121.8487,221.8352 122.9957,222.3142" id="Fill-205" fill="#FF3548"></path>
            <path d="M131.401,225.5681 C132.573,227.2501 133.493,229.1281 134.109,231.0991 C134.259,231.5781 134.392,232.0731 134.373,232.5671 C134.353,233.0621 134.156,233.5621 133.767,233.8061 C133.004,234.2891 131.961,233.5571 131.535,232.6701 C131.108,231.7831 131.038,230.7581 130.649,229.8531 C130.012,228.3711 128.64,227.4261 127.465,226.3751 C127.051,226.0051 126.642,225.5911 126.431,225.0621 C126.221,224.5341 126.264,223.8601 126.664,223.5181 C127.983,222.3841 130.578,224.3861 131.401,225.5681" id="Fill-207" fill="#FF3548"></path>
            <path d="M95.5563,167.0735 L122.0763,246.3395 L94.3323,255.6215 L67.8123,176.3555 C69.9903,176.1355 72.1423,175.8115 74.2773,175.3795 C79.4653,174.3315 84.5033,172.6645 89.2913,170.4225 C91.4343,169.4225 93.5293,168.3075 95.5563,167.0735" id="Fill-209" fill="#EE1824"></path>
            <polygon id="Fill-211" fill="#FF3548" points="89.2916 170.4221 97.4176 194.7101 82.4236 199.7261 74.2976 175.4391"></polygon>
            <polygon id="Fill-213" fill="#FF3548" points="89.7467 221.616 104.7407 216.599 115.4337 248.561 100.4397 253.578"></polygon>
            <path d="M93.2663,160.2288 L96.4063,169.6148 C94.3793,170.8488 92.2853,171.9638 90.1423,172.9638 C85.3533,175.2058 80.3163,176.8728 75.1273,177.9208 C72.9933,178.3528 70.8403,178.6768 68.6623,178.8968 L65.5223,169.5108 L93.2663,160.2288 Z" id="Fill-215" fill="#C21617"></path>
            <path d="M120.9645,243.0183 L124.6865,254.1413 C122.6595,255.3743 120.5655,256.4903 118.4215,257.4903 C113.6335,259.7323 108.5955,261.3993 103.4075,262.4473 C101.2735,262.8783 99.1205,263.2043 96.9435,263.4233 L93.2215,252.3003 C95.3995,252.0813 97.5515,251.7563 99.6865,251.3253 C104.8745,250.2763 109.9115,248.6103 114.7005,246.3673 C116.8435,245.3683 118.9385,244.2523 120.9645,243.0183" id="Fill-217" fill="#101010"></path>
            <path d="M102.6041,162.1814 C100.3491,163.9724 97.9951,165.6074 95.5561,167.0734 C93.5291,168.3074 91.4341,169.4224 89.2911,170.4224 C84.5031,172.6644 79.4651,174.3314 74.2771,175.3794 C72.1421,175.8114 69.9901,176.1354 67.8121,176.3554 C64.9741,176.6554 62.1101,176.7654 59.2401,176.6894 L69.6521,135.7644 L102.6041,162.1814 Z" id="Fill-219" fill="#85DF14"></path>
            <path d="M114.7008,246.3669 L118.4218,257.4899 C113.6338,259.7319 108.5958,261.3989 103.4078,262.4469 L99.6858,251.3249 C104.8748,250.2759 109.9118,248.6099 114.7008,246.3669" id="Fill-221" fill="#323232"></path>
            <path d="M89.2916,170.4221 C84.5036,172.6651 79.4656,174.3311 74.2766,175.3791 L69.6516,135.7641 L89.2916,170.4221 Z" id="Fill-223" fill="#B6F45D"></path>
            <polygon id="Fill-225" fill="#B6F45D" points="97.4176 194.7097 104.7406 216.5997 89.7466 221.6157 82.4236 199.7267"></polygon>
            <polygon id="Fill-227" fill="#85DF14" points="76.3151 201.7693 82.4231 199.7263 89.7471 221.6163 83.6391 223.6593"></polygon>
            <polygon id="Fill-229" fill="#85DF14" points="104.0582 192.4871 111.3822 214.3771 104.7412 216.5991 97.4172 194.7101"></polygon>
            <path d="M96.9284,216.0388 L96.9284,216.0388 C95.1694,216.6268 94.2214,218.5288 94.8104,220.2868 L111.9734,271.5888 C112.5624,273.3468 114.4634,274.2948 116.2224,273.7068 C117.9804,273.1178 118.9284,271.2168 118.3404,269.4578 L101.1764,218.1568 C100.5884,216.3988 98.6864,215.4508 96.9284,216.0388" id="Fill-231" fill="#C21617"></path>
            <path d="M103.3502,235.2332 L103.3502,235.2332 C102.4602,235.5312 101.9802,236.4942 102.2782,237.3832 L114.0722,272.6342 C114.3702,273.5242 115.3322,274.0042 116.2222,273.7072 C117.1122,273.4092 117.5912,272.4462 117.2932,271.5562 L105.4992,236.3052 C105.2032,235.4162 104.2402,234.9352 103.3502,235.2332" id="Fill-233" fill="#EE1824"></path>
            <polygon id="Fill-235" fill="#F8C400" points="53.3668 192.8103 39.9608 206.0853 3.7028 169.4723 17.1098 156.1963"></polygon>
            <polygon id="Fill-237" fill="#FFDE00" points="15.4704 160.9592 8.2244 168.1342 42.6084 202.8572 49.8544 195.6812"></polygon>
            <path d="M17.2721,156.1565 C16.7561,157.2465 16.1741,158.2975 15.5291,159.2995 C14.9961,160.1375 14.4161,160.9445 13.7941,161.7175 C12.4111,163.4465 10.8261,165.0045 9.0701,166.3585 C8.3481,166.9165 7.5991,167.4365 6.8221,167.9225 C5.8101,168.5595 4.7541,169.1315 3.6621,169.6345 L0.0001,152.3275 L17.2721,156.1565 Z" id="Fill-239" fill="#101010"></path>
            <g id="Group-243" transform="translate(0.000000, 151.674000)">
                <mask id="mask-2" fill="white">
                    <use xlink:href="#path-1"></use>
                </mask>
                <g id="Clip-242"></g>
                <path d="M13.7946,10.043 C12.4106,11.772 10.8256,13.331 9.0696,14.685 L-0.0004,0.654 L13.7946,10.043 Z" id="Fill-241" fill="#323232" mask="url(#mask-2)"></path>
            </g>
            <path d="M50.2711,189.6834 L55.5931,195.0584 C54.7721,196.3504 53.8771,197.5924 52.9231,198.7814 C50.7921,201.4434 48.3521,203.8424 45.6491,205.9274 C44.5371,206.7864 43.3841,207.5864 42.1871,208.3344 L36.8641,202.9594 C38.0611,202.2114 39.2141,201.4114 40.3271,200.5524 C43.0291,198.4674 45.4691,196.0684 47.6001,193.4064 C48.5551,192.2174 49.4501,190.9754 50.2711,189.6834" id="Fill-244" fill="#101010"></path>
            <path d="M47.6002,193.406 L52.9232,198.781 C50.7912,201.443 48.3522,203.843 45.6492,205.927 L40.3272,200.552 C43.0292,198.468 45.4692,196.068 47.6002,193.406" id="Fill-246" fill="#323232"></path>
            <polygon id="Fill-248" fill="#F2C697" points="44.7389 199.324 41.6849 202.348 108.7649 270.089 111.8189 267.065"></polygon>
            <polygon id="Fill-250" fill="#BE7C46" points="238.9137 375.4919 236.0197 375.8069 129.5367 387.5309 129.4997 387.5409 126.5187 387.8599 86.8567 392.2249 85.1557 392.4159 81.0307 354.9749 69.3487 248.8399 76.1897 248.0959 94.8797 246.0309 94.9777 246.0279 106.5517 244.7549 170.6417 237.6889 223.1187 231.9179"></polygon>
            <path d="M210.2477,339.8455 C220.3117,300.7585 208.1517,286.9595 191.2517,280.8385 C174.3507,274.7175 171.8807,274.0265 170.3607,245.7085 C170.2097,242.8895 169.8947,239.6385 170.8537,237.0465 L223.1117,231.9225 L238.9107,375.4965 L129.4977,387.5355 C161.3117,379.3145 204.0367,363.9645 210.2477,339.8455" id="Fill-252" fill="#955E30"></path>
            <polygon id="Fill-254" fill="#704525" points="236.0192 375.8142 220.4002 233.8732 105.8852 244.8222 225.4412 228.9152 241.5392 375.2072"></polygon>
            <path d="M86.8571,392.2253 L85.1561,392.4153 L82.7221,392.6733 L78.7021,356.1163 L76.4031,335.2663 L73.5971,309.8333 L66.9581,249.4463 L67.2371,249.0793 C69.2681,248.5003 70.9851,246.9233 72.9301,245.6733 L72.4081,246.5603 L94.8791,246.0313 L94.9781,246.0283 L71.1111,249.1973 L71.5081,252.8103 L76.0111,293.6653 L80.8291,337.4263 L82.6661,354.1643 L86.8571,392.2253 Z" id="Fill-256" fill="#F2C697"></path>
            <path d="M230.9987,352.1785 C281.7087,352.8405 305.4207,305.6055 306.7277,291.2135 C298.4507,303.1575 239.9697,340.7475 230.9987,352.1785" id="Fill-258" fill="#AC5E11"></path>
            <path d="M167.6237,252.4724 C165.3647,257.9254 155.9227,278.5324 154.9697,278.1364 C154.0157,277.7424 161.9117,256.4954 164.1717,251.0414 C166.4307,245.5874 167.5197,245.1464 168.4727,245.5414 C169.4257,245.9364 169.8837,247.0184 167.6237,252.4724" id="Fill-260" fill="#FFDE00"></path>
            <path d="M184.6139,271.405 C179.1599,273.664 157.9129,281.558 157.5169,280.604 C157.1229,279.651 177.7289,270.211 183.1829,267.952 C188.6379,265.693 189.7189,266.151 190.1139,267.104 C190.5099,268.058 190.0679,269.146 184.6139,271.405" id="Fill-262" fill="#FFDE00"></path>
            <path d="M183.2399,296.8064 C177.7859,294.5474 157.1789,285.1054 157.5749,284.1524 C157.9689,283.1984 179.2169,291.0944 184.6699,293.3544 C190.1239,295.6134 190.5649,296.7024 190.1699,297.6554 C189.7749,298.6084 188.6929,299.0664 183.2399,296.8064" id="Fill-264" fill="#FFDE00"></path>
            <path d="M164.3063,313.7966 C162.0473,308.3426 154.1533,287.0956 155.1073,286.6996 C156.0603,286.3056 165.5003,306.9116 167.7593,312.3656 C170.0183,317.8206 169.5603,318.9016 168.6073,319.2966 C167.6533,319.6926 166.5653,319.2506 164.3063,313.7966" id="Fill-266" fill="#FFDE00"></path>
            <path d="M138.9049,312.4226 C141.1639,306.9686 150.6059,286.3616 151.5589,286.7576 C152.5129,287.1516 144.6169,308.3996 142.3579,313.8526 C140.0979,319.3066 139.0089,319.7476 138.0559,319.3526 C137.1029,318.9576 136.6449,317.8756 138.9049,312.4226" id="Fill-268" fill="#FFDE00"></path>
            <path d="M121.9147,293.489 C127.3687,291.23 148.6157,283.336 149.0117,284.29 C149.4057,285.243 128.7997,294.683 123.3457,296.942 C117.8917,299.201 116.8097,298.743 116.4147,297.79 C116.0187,296.836 116.4607,295.748 121.9147,293.489" id="Fill-270" fill="#FFDE00"></path>
            <path d="M123.2897,268.0877 C128.7427,270.3467 149.3497,279.7887 148.9537,280.7417 C148.5597,281.6957 127.3127,273.7997 121.8587,271.5407 C116.4047,269.2807 115.9637,268.1917 116.3587,267.2387 C116.7537,266.2857 117.8357,265.8277 123.2897,268.0877" id="Fill-272" fill="#FFDE00"></path>
            <path d="M142.2223,251.0974 C144.4813,256.5514 152.3753,277.7984 151.4213,278.1944 C150.4683,278.5884 141.0283,257.9824 138.7693,252.5284 C136.5103,247.0744 136.9683,245.9924 137.9213,245.5974 C138.8753,245.2014 139.9633,245.6434 142.2223,251.0974" id="Fill-274" fill="#FFDE00"></path>
            <path d="M176.983,259.3914 C175.171,261.2504 167.952,268.1284 167.627,267.8114 C167.301,267.4954 173.993,260.1034 175.806,258.2444 C177.619,256.3844 178.135,256.3814 178.461,256.6994 C178.786,257.0154 178.795,257.5324 176.983,259.3914" id="Fill-276" fill="#FFDE00"></path>
            <path d="M186.2584,282.8347 C183.6614,282.8677 173.6944,282.6267 173.688397,282.1727 C173.6824,281.7187 183.6404,281.2247 186.2374,281.1907 C188.8334,281.1577 189.2004,281.5217 189.206473,281.9757 C189.2124,282.4297 188.8554,282.8027 186.2584,282.8347" id="Fill-278" fill="#FFDE00"></path>
            <path d="M176.2389,305.9705 C174.3799,304.1585 167.5029,296.9395 167.8189,296.6145 C168.1359,296.2885 175.5269,302.9805 177.3859,304.7935 C179.2459,306.6065 179.2489,307.1225 178.9319,307.4485 C178.6149,307.7735 178.0979,307.7825 176.2389,305.9705" id="Fill-280" fill="#FFDE00"></path>
            <path d="M152.7955,315.2459 C152.7625,312.6489 153.0035,302.6819 153.4575,302.675897 C153.9115,302.6699 154.4055,312.6279 154.4395,315.2249 C154.4725,317.8209 154.1085,318.1879 153.6545,318.193973 C153.2005,318.1999 152.8285,317.8429 152.7955,315.2459" id="Fill-282" fill="#FFDE00"></path>
            <path d="M129.6598,305.2263 C131.4718,303.3673 138.6918,296.4903 139.0158,296.8063 C139.3418,297.1233 132.6498,304.5143 130.8378,306.3733 C129.0238,308.2333 128.5078,308.2363 128.1818,307.9193 C127.8578,307.6023 127.8478,307.0853 129.6598,305.2263" id="Fill-284" fill="#FFDE00"></path>
            <path d="M120.3854,281.783 C122.9824,281.75 132.9494,281.991 132.954403,282.445 C132.9604,282.899 123.0024,283.393 120.4064,283.427 C117.8094,283.46 117.4424,283.096 117.436327,282.642 C117.4304,282.188 117.7884,281.816 120.3854,281.783" id="Fill-286" fill="#FFDE00"></path>
            <path d="M130.4039,258.6472 C132.2629,260.4592 139.1409,267.6782 138.8239,268.0032 C138.5079,268.3292 131.1159,261.6372 129.2569,259.8252 C127.3969,258.0112 127.3939,257.4952 127.7119,257.1692 C128.0279,256.8452 128.5449,256.8352 130.4039,258.6472" id="Fill-288" fill="#FFDE00"></path>
            <path d="M153.8473,249.3728 C153.8803,251.9698 153.6393,261.9368 153.1853,261.941803 C152.7313,261.9478 152.2373,251.9898 152.2033,249.3938 C152.1703,246.7968 152.5343,246.4298 152.9883,246.423727 C153.4423,246.4178 153.8153,246.7758 153.8473,249.3728" id="Fill-290" fill="#FFDE00"></path>
            <path d="M174.3854,348.5095 C170.4134,349.2125 155.0734,351.3505 154.9494,350.6555 C154.8264,349.9605 169.9684,346.6975 173.9404,345.9945 C177.9124,345.2905 178.5674,345.7555 178.6904,346.4495 C178.8134,347.1445 178.3584,347.8055 174.3854,348.5095" id="Fill-292" fill="#B6F45D"></path>
            <path d="M169.7262,365.2566 C166.4192,362.9446 154.0612,353.6096 154.4652,353.0306 C154.8702,352.4526 167.8822,360.8526 171.1892,363.1626 C174.4962,365.4746 174.6292,366.2656 174.2252,366.8436 C173.8212,367.4216 173.0322,367.5686 169.7262,365.2566" id="Fill-294" fill="#B6F45D"></path>
            <path d="M154.5895,373.8035 C153.8855,369.8305 151.7485,354.4915 152.4435,354.3675 C153.1375,354.2445 156.4005,369.3855 157.1045,373.3585 C157.8075,377.3295 157.3425,377.9845 156.6485,378.1075 C155.9535,378.2305 155.2925,377.7755 154.5895,373.8035" id="Fill-296" fill="#B6F45D"></path>
            <path d="M137.8424,369.1433 C140.1534,365.8373 149.4894,353.4793 150.0684,353.8823 C150.6464,354.2873 142.2464,367.3003 139.9354,370.6073 C137.6234,373.9133 136.8324,374.0463 136.2544,373.6433 C135.6774,373.2393 135.5304,372.4503 137.8424,369.1433" id="Fill-298" fill="#B6F45D"></path>
            <path d="M129.2955,354.0066 C133.2675,353.3036 148.6075,351.1666 148.7315,351.8606 C148.8545,352.5556 133.7125,355.8186 129.7405,356.5216 C125.7685,357.2256 125.1135,356.7606 124.9905,356.0666 C124.8675,355.3716 125.3225,354.7106 129.2955,354.0066" id="Fill-300" fill="#B6F45D"></path>
            <path d="M133.9547,337.2595 C137.2617,339.5715 149.6197,348.9075 149.2157,349.4855 C148.8107,350.0635 135.7987,341.6635 132.4917,339.3535 C129.1847,337.0415 129.0517,336.2505 129.4557,335.6725 C129.8597,335.0945 130.6487,334.9485 133.9547,337.2595" id="Fill-302" fill="#B6F45D"></path>
            <path d="M149.0914,328.7127 C149.7954,332.6857 151.9324,348.0257 151.2374,348.1497 C150.5434,348.2717 147.2804,333.1307 146.5764,329.1577 C145.8734,325.1867 146.3384,324.5317 147.0324,324.4087 C147.7274,324.2857 148.3884,324.7407 149.0914,328.7127" id="Fill-304" fill="#B6F45D"></path>
            <path d="M165.8385,333.3728 C163.5275,336.6798 154.1915,349.0368 153.6125,348.6338 C153.0345,348.2288 161.4345,335.2158 163.7455,331.9088 C166.0575,328.6028 166.8485,328.4698 167.4265,328.8728 C168.0035,329.2768 168.1505,330.0658 165.8385,333.3728" id="Fill-306" fill="#B6F45D"></path>
            <path d="M173.8405,356.4441 C172.1035,356.0841 165.4875,354.4541 165.5505,354.1501 C165.6135,353.8461 172.3315,354.9841 174.0695,355.3441 C175.8065,355.7051 175.9975,356.0021 175.9355,356.3051 C175.8715,356.6091 175.5785,356.8051 173.8405,356.4441" id="Fill-308" fill="#B6F45D"></path>
            <path d="M163.7467,370.406 C162.7727,368.922 159.2477,363.092 159.5067,362.922 C159.7667,362.752 163.7127,368.305 164.6857,369.789 C165.6597,371.273 165.5857,371.618 165.3257,371.788 C165.0657,371.959 164.7207,371.889 163.7467,370.406" id="Fill-310" fill="#B6F45D"></path>
            <path d="M146.737,373.1404 C147.097,371.4024 148.727,364.7864 149.031,364.8504 C149.335,364.9124 148.198,371.6304 147.837,373.3684 C147.476,375.1064 147.179,375.2974 146.876,375.2344 C146.572,375.1714 146.377,374.8774 146.737,373.1404" id="Fill-312" fill="#B6F45D"></path>
            <path d="M132.776,363.0457 C134.259,362.0717 140.089,358.5467 140.259,358.8067 C140.43,359.0657 134.876,363.0117 133.392,363.9847 C131.909,364.9587 131.563,364.8847 131.393,364.6247 C131.223,364.3657 131.293,364.0197 132.776,363.0457" id="Fill-314" fill="#B6F45D"></path>
            <path d="M130.0416,346.0359 C131.7786,346.3969 138.3946,348.0259 138.3316,348.3299 C138.2686,348.6349 131.5506,347.4969 129.8126,347.1369 C128.0756,346.7759 127.8846,346.4789 127.9466,346.1759 C128.0106,345.8719 128.3036,345.6759 130.0416,346.0359" id="Fill-316" fill="#B6F45D"></path>
            <path d="M140.1354,332.075 C141.1094,333.558 144.6344,339.388 144.3754,339.559 C144.1154,339.729 140.1694,334.175 139.1964,332.691 C138.2224,331.208 138.2964,330.863 138.5564,330.692 C138.8164,330.522 139.1614,330.592 140.1354,332.075" id="Fill-318" fill="#B6F45D"></path>
            <path d="M157.1452,329.3406 C156.7852,331.0776 155.1552,337.6936 154.8512,337.6306 C154.5472,337.5676 155.6842,330.8496 156.0452,329.1116 C156.4062,327.3746 156.7032,327.1836 157.0062,327.2466 C157.3102,327.3096 157.5052,327.6036 157.1452,329.3406" id="Fill-320" fill="#B6F45D"></path>
            <path d="M171.1061,339.4343 C169.6231,340.4083 163.7931,343.9333 163.6231,343.6743 C163.4521,343.4143 169.0061,339.4693 170.4901,338.4963 C171.9731,337.5223 172.3191,337.5963 172.4891,337.8553 C172.6591,338.1153 172.5891,338.4603 171.1061,339.4343" id="Fill-322" fill="#B6F45D"></path>
            <path d="M213.8512,315.616 C212.1292,311.928 212.0322,307.724 211.7112,303.666 C211.2112,297.332 210.0962,291.046 208.3862,284.926 C207.9672,283.426 207.4252,281.814 206.1272,280.955 C205.1812,280.328 203.1982,280.982 202.4032,280.174 C200.7782,287.708 196.3412,294.602 190.1582,299.203 C188.3342,300.559 186.0732,301.769 183.8812,301.17 C181.7352,300.582 180.4212,298.479 179.3172,296.547 C178.4492,295.026 178.0772,293.2 177.2082,291.679 C175.0392,292.02 173.0642,293.194 171.4722,294.706 C169.8802,296.218 168.6392,298.056 167.5102,299.939 C166.6122,301.439 165.7762,302.975 165.0062,304.545 C164.7972,304.544 164.2962,304.686 164.3282,304.479 C161.0872,308.685 160.2482,314.843 162.8332,319.48 C160.6942,320.496 158.5072,322.301 158.2822,324.658 C157.9382,328.236 159.1032,331.834 160.9452,334.921 C162.7882,338.007 165.2802,340.648 167.8122,343.199 C170.5222,345.928 173.3272,348.608 176.5732,350.672 C181.5362,353.826 187.3092,355.41 192.9852,356.951 C193.0502,356.97 202.2392,361.776 202.3052,361.793 C209.4932,354.746 206.4112,341.152 209.4512,331.555 C210.6232,327.853 211.4462,324.049 212.5672,320.33 C213.0372,318.771 213.2302,317.121 213.8512,315.616" id="Fill-324" fill="#955E30"></path>
            <path d="M312.9781,269.5183 C311.4981,288.9313 299.6771,308.0933 286.7831,322.1673 C262.0681,349.1593 222.4581,361.4833 187.7911,346.8293 C182.3931,344.5433 177.6021,342.2043 173.5111,339.8653 C162.5951,333.6243 156.6181,327.4263 157.2071,322.5633 C158.0221,315.8873 164.7731,317.3613 164.7731,317.3613 C164.7731,317.3613 160.2301,309.7073 162.9101,304.0253 C165.5791,298.3303 171.3221,299.1223 171.3221,299.1223 C170.1001,294.5603 172.9041,287.6473 178.2111,286.0643 C183.5301,284.4943 186.2941,291.8143 189.4171,295.4653 C192.5401,299.1293 202.2991,301.0483 202.2991,301.0483 C204.6821,296.1873 203.4801,291.5543 204.2081,285.5723 C205.0231,278.8963 206.4921,274.3583 213.1681,275.1613 C219.8441,275.9763 219.1741,278.7433 220.3441,287.3933 C221.2481,294.1013 221.1321,302.4143 221.1321,302.4143 C222.5931,302.8413 223.9721,303.0893 225.2881,303.2213 C230.6241,303.7553 236.4011,302.0053 241.5061,300.6123 C246.6631,299.2003 251.7021,297.3213 256.5321,295.0313 C265.5641,290.7363 273.8631,284.9133 281.1371,278.0493 C288.0761,271.4873 294.4091,263.4813 303.5121,259.6233 C304.7781,259.0863 306.1471,258.6333 307.5111,258.7693 C308.3751,258.8723 309.1691,259.1903 309.8641,259.6713 C310.9861,260.4503 311.8491,261.6343 312.3481,262.9093 C313.1671,264.9873 313.1421,267.2963 312.9781,269.5183" id="Fill-326" fill="#F6B059"></path>
            <path d="M171.32,299.1189 C171.32,299.1189 174.215,305.6359 177.681,308.7639 C183.065,313.6249 193.48,317.0419 193.48,317.0419 C193.48,317.0419 185.278,316.7229 179.421,313.1879 C170.697,307.9249 171.955,304.4149 169.371,301.9049 C167.849,300.4279 165.417,300.5649 165.417,300.5649 C165.417,300.5649 167.957,297.6749 171.32,299.1189" id="Fill-328" fill="#CF7716"></path>
            <path d="M164.7789,317.3611 C164.7789,317.3611 168.9339,321.2301 173.0229,323.9631 C177.1119,326.6941 185.0999,330.0341 185.0999,330.0341 C185.0999,330.0341 178.9109,330.5091 172.8079,327.2121 C166.7069,323.9141 163.0509,318.6441 159.5219,318.3291 C159.5219,318.3291 162.9149,316.3741 164.7789,317.3611" id="Fill-330" fill="#CF7716"></path>
            <path d="M213.1666,275.1648 C213.1666,275.1648 210.4306,275.2918 209.9026,279.8528 C209.3746,284.4158 209.2686,297.5238 207.4196,300.0278 C205.5716,302.5318 202.3056,301.0428 202.3056,301.0428 C202.3056,301.0428 203.6066,293.4348 203.3906,290.5068 C203.1736,287.5778 203.5626,280.7468 204.8396,278.5138 C206.1146,276.2798 208.3736,274.3958 213.1666,275.1648" id="Fill-332" fill="#CF7716"></path>
            <path d="M312.9781,269.5183 C311.4981,288.9313 299.6771,308.0933 286.7831,322.1673 C262.0681,349.1593 222.4581,361.4833 187.7911,346.8293 C182.3931,344.5433 177.6021,342.2043 173.5111,339.8653 C194.2771,344.1843 219.1861,354.8043 257.4711,335.1423 C297.3931,314.6463 309.2881,269.5403 309.8641,259.6713 C310.9861,260.4503 311.8491,261.6343 312.3481,262.9093 C313.1671,264.9873 313.1421,267.2963 312.9781,269.5183" id="Fill-334" fill="#CF7716"></path>
            <path d="M303.5123,259.6238 C299.5023,266.9558 291.8713,278.2988 263.9343,295.9608 C235.9983,313.6108 221.1323,302.4138 221.1323,302.4138 C222.5933,302.8418 223.9723,303.0898 225.2873,303.2218 C230.6233,303.7558 236.4013,302.0058 241.5063,300.6118 C246.6623,299.1998 251.7013,297.3208 256.5323,295.0308 C265.5643,290.7358 273.8633,284.9128 281.1373,278.0498 C288.0753,271.4868 294.4083,263.4808 303.5123,259.6238" id="Fill-336" fill="#FBD895"></path>
            <path d="M89.0924,305.1033 C92.5524,304.8823 95.7274,307.9263 96.1924,311.3693 C96.6694,314.8103 94.7974,318.3113 92.0194,320.3883 C89.2294,322.4543 85.6494,323.2533 82.1704,323.2663 C81.2774,323.2773 80.2594,323.2413 79.2394,323.0943 C78.6374,323.0113 78.0344,322.8923 77.4534,322.7103 C76.4044,322.3693 75.4484,321.8543 74.7674,321.0383 L71.3804,295.6723 C71.1274,291.3923 71.0804,287.0583 72.1664,282.9533 C72.3004,282.4113 72.4584,281.8793 72.6414,281.3483 C72.8704,280.7063 73.1234,280.0633 73.4274,279.4563 C73.8934,278.5003 74.4834,277.6043 75.2244,276.8513 C76.6334,275.4083 78.5224,274.5403 80.4154,273.8563 C82.8794,272.9743 85.4974,272.3583 88.0884,272.6363 C90.6924,272.9153 93.2834,274.1853 94.6614,276.4163 C96.4474,279.3113 95.6344,283.5333 92.8924,285.5483 C96.0004,288.4103 97.9924,292.6843 97.4234,296.8743 C96.8424,301.0653 93.3124,304.8753 89.0924,305.1033" id="Fill-338" fill="#955E30"></path>
            <path d="M65.8053,283.6755 C65.8053,283.6755 58.2493,279.4575 63.6153,273.6355 C68.9813,267.8125 88.3963,264.9575 91.7803,269.0845 C95.1633,273.2125 94.7083,276.2675 89.4503,278.8575 C84.1913,281.4465 74.5713,282.9195 74.5713,282.9195 L65.8053,283.6755 Z" id="Fill-340" fill="#F6B059"></path>
            <path d="M93.3405,271.3005 C93.3405,271.3005 95.9345,275.9045 92.2135,278.8635 C88.4935,281.8225 79.3445,282.8505 75.2115,283.5465 C71.0785,284.2425 65.3735,284.7985 63.7785,282.9205 C62.1845,281.0435 61.1205,278.1205 61.7815,277.1415 C61.7815,277.1415 63.3985,280.7555 67.6265,280.6835 C71.8545,280.6105 85.6685,277.5135 88.6895,276.4175 C91.7105,275.3215 93.1595,274.0845 93.3405,271.3005" id="Fill-342" fill="#CF7716"></path>
            <path d="M93.57,283.907 C95.645,287.59 96.741,294.5 92.012,296.045 C87.285,297.59 72.687,298.289 72.687,298.289 C72.687,298.289 80.798,300.87 84.813,301.594 C88.83,302.317 91.049,303.772 91.553,307.096 C92.057,310.42 92.728,315.142 87.829,316.162 C82.929,317.181 72.669,316.027 68.229,313.117 C63.79,310.207 65.509,300.343 67.879,298.697 C67.879,298.697 62.813,298.318 61.718,291.407 C60.623,284.497 66.794,282.917 66.794,282.917 C73.965,281.956 91.495,280.224 93.57,283.907" id="Fill-344" fill="#F6B059"></path>
            <path d="M89.8571,282.1052 C89.8571,282.1052 91.7831,283.3292 91.9931,286.6402 C92.2021,289.9512 91.1751,291.8132 88.8781,292.4552 C86.5801,293.0962 71.2971,295.0372 68.2831,295.1492 C65.2671,295.2622 62.4261,293.5742 61.7561,290.5232 C61.7561,290.5232 61.1481,293.6652 63.9151,296.7942 C66.6811,299.9242 70.6511,299.0632 74.7481,298.9232 C78.8451,298.7852 91.3381,297.3192 93.0471,296.5432 C94.7561,295.7662 96.4081,293.4822 95.7821,288.5632 C95.1561,283.6442 92.4141,281.9232 89.8571,282.1052" id="Fill-346" fill="#CF7716"></path>
            <path d="M69.608,298.2048 L67.879,298.6968 C67.879,298.6968 76.268,302.2428 81.375,303.1908 C86.481,304.1388 89.173,305.0388 89.678,308.2538 C90.183,311.4678 88.043,313.2578 81.289,313.9378 C74.534,314.6188 67.946,313.1378 65.708,309.2908 C65.708,309.2908 65.949,312.6998 69.807,314.1648 C73.666,315.6298 81.565,317.0088 88.679,316.4288 C95.794,315.8488 94.305,307.2868 93.006,305.3128 C91.707,303.3398 91.145,302.3968 88.297,301.6918 C85.451,300.9868 77.004,299.8218 74.457,298.3648 C71.909,296.9078 69.608,298.2048 69.608,298.2048" id="Fill-348" fill="#CF7716"></path>
            <path d="M107.5495,71.3396 C106.6785,74.5336 105.5985,77.6486 104.3055,80.6956 C103.6885,82.1506 105.9835,83.0056 106.5975,81.5576 C107.8915,78.5096 108.9715,75.3956 109.8425,72.2016 C110.2535,70.6916 107.9645,69.8196 107.5495,71.3396" id="Fill-350" fill="#FFFFFF"></path>
            <path d="M104.5758,84.634 C103.0078,84.492 102.7828,86.93 104.3548,87.073 C105.9248,87.216 106.1478,84.777 104.5758,84.634" id="Fill-352" fill="#FFFFFF"></path>
            <path d="M156.1774,164.97 C152.0544,165.215 148.1174,164.397 144.3834,162.655 C142.9524,161.987 142.1014,164.285 143.5214,164.947 C147.6824,166.888 152.0364,167.652 156.6124,167.38 C158.1794,167.287 157.7364,164.877 156.1774,164.97" id="Fill-354" fill="#FFFFFF"></path>
            <path d="M160.7526,165.2893 C159.1836,165.1463 158.9596,167.5853 160.5306,167.7273 C162.1006,167.8703 162.3246,165.4323 160.7526,165.2893" id="Fill-356" fill="#FFFFFF"></path>
            <path d="M95.0436,159.927 C94.5966,158.385 93.1916,157.355 92.0556,156.318 C90.2096,154.633 88.3636,152.948 86.5176,151.262 C85.3546,150.2 83.9446,152.207 85.0956,153.257 L89.9816,157.717 C90.7316,158.402 91.8886,159.106 92.3726,159.998 C93.1026,161.344 92.4546,162.678 90.9736,162.906 C89.4166,163.144 89.8486,165.555 91.4076,165.316 C93.8666,164.939 95.7686,162.43 95.0436,159.927" id="Fill-358" fill="#FFFFFF"></path>
            <path d="M64.695,70.1057 C63.892,72.6207 63.402,75.1877 63.251,77.8247 C63.16,79.3947 65.598,79.6237 65.689,78.0457 C65.829,75.6237 66.25,73.2797 66.988,70.9677 C67.466,69.4697 65.175,68.6027 64.695,70.1057" id="Fill-360" fill="#FFFFFF"></path>
            <path d="M70.6881,102.0207 C69.8251,99.1587 68.9611,96.2957 68.0991,93.4337 C67.6501,91.9437 65.2331,92.3577 65.6881,93.8687 C66.5511,96.7307 67.4151,99.5937 68.2771,102.4557 C68.7261,103.9457 71.1431,103.5317 70.6881,102.0207" id="Fill-362" fill="#FFFFFF"></path>
            <path d="M71.3864,104.9309 C69.8174,104.7879 69.5934,107.2269 71.1644,107.3689 C72.7344,107.5119 72.9574,105.0739 71.3864,104.9309" id="Fill-364" fill="#FFFFFF"></path>
            <path d="M6.5465,162.8284 C5.4525,161.6274 4.7665,160.1394 4.7225,158.4974 C4.6815,156.9404 2.2425,156.7014 2.2835,158.2754 C2.3445,160.5694 3.1085,162.6864 4.6655,164.3964 C5.7255,165.5594 7.6105,163.9964 6.5465,162.8284" id="Fill-366" fill="#FFFFFF"></path>
            <path d="M19.7809,179.5203 C17.5999,177.1583 15.3349,174.8813 12.9849,172.6873 C11.8469,171.6243 9.9539,173.1803 11.1039,174.2553 C13.4539,176.4493 15.7189,178.7263 17.8999,181.0883 C18.9679,182.2433 20.8529,180.6813 19.7809,179.5203" id="Fill-368" fill="#FFFFFF"></path>
            <path d="M22.5006,183.0144 C20.9326,182.8714 20.7076,185.3104 22.2796,185.4524 C23.8496,185.5954 24.0726,183.1574 22.5006,183.0144" id="Fill-370" fill="#FFFFFF"></path>
            <path d="M84.2887,206.3962 C83.2137,201.5582 81.8677,196.8052 80.2677,192.1152 C79.7607,190.6262 77.5457,191.6742 78.0507,193.1552 C79.5817,197.6442 80.8497,202.2012 81.8787,206.8312 C82.2197,208.3632 84.6327,207.9402 84.2887,206.3962" id="Fill-372" fill="#FFFFFF"></path>
            <path d="M135.8258,207.3435 C135.6828,205.7765 133.2728,206.2155 133.4158,207.7785 C133.7208,211.1145 134.0238,214.4485 134.3278,217.7835 C134.4718,219.3515 136.8818,218.9115 136.7388,217.3495 C136.4338,214.0145 136.1308,210.6785 135.8258,207.3435" id="Fill-374" fill="#FFFFFF"></path>
            <path d="M135.901,220.6375 C134.333,220.4945 134.108,222.9335 135.68,223.0755 C137.25,223.2185 137.473,220.7805 135.901,220.6375" id="Fill-376" fill="#FFFFFF"></path>
            <path d="M113.777,315.3435 C113.615,317.1285 112.492,324.9285 111.984,324.8815 C111.476,324.8355 111.775,316.9615 111.937,315.1765 C112.099,313.3925 112.545,313.0605 113.052,313.1065 C113.561,313.1525 113.939,313.5595 113.777,315.3435" id="Fill-378" fill="#FFB359"></path>
            <path d="M127.5924,323.4558 C126.2154,324.6028 119.9054,329.3238 119.5794,328.9328 C119.2524,328.5408 125.0324,323.1848 126.4094,322.0378 C127.7854,320.8908 128.3354,320.9708 128.6614,321.3618 C128.9884,321.7538 128.9684,322.3098 127.5924,323.4558" id="Fill-380" fill="#FFB359"></path>
            <path d="M131.6246,338.9617 C129.8396,338.7997 122.0406,337.6757 122.0866,337.1677 C122.1326,336.6597 130.0066,336.9597 131.7916,337.1217 C133.5756,337.2837 133.9076,337.7297 133.8616,338.2367 C133.8156,338.7447 133.4086,339.1227 131.6246,338.9617" id="Fill-382" fill="#FFB359"></path>
            <path d="M123.5123,352.7761 C122.3653,351.4001 117.6443,345.0901 118.0353,344.7631 C118.4273,344.4371 123.7833,350.2171 124.9313,351.5931 C126.0773,352.9691 125.9983,353.5191 125.6063,353.8461 C125.2143,354.1721 124.6593,354.1531 123.5123,352.7761" id="Fill-384" fill="#FFB359"></path>
            <path d="M108.0075,356.8084 C108.1695,355.0244 109.2925,347.2244 109.8005,347.2704 C110.3085,347.3174 110.0085,355.1914 109.8465,356.9754 C109.6855,358.7604 109.2385,359.0924 108.7315,359.0464 C108.2235,358.9994 107.8455,358.5934 108.0075,356.8084" id="Fill-386" fill="#FFB359"></path>
            <path d="M94.192,348.696 C95.569,347.549 101.878,342.828 102.205,343.219 C102.531,343.612 96.752,348.967 95.375,350.115 C93.999,351.262 93.449,351.182 93.122,350.791 C92.796,350.399 92.816,349.843 94.192,348.696" id="Fill-388" fill="#FFB359"></path>
            <path d="M90.1598,333.1912 C91.9438,333.3532 99.7438,334.4762 99.6978,334.9842 C99.6518,335.4932 91.7768,335.1932 89.9928,335.0312 C88.2088,334.8692 87.8758,334.4232 87.9228,333.9162 C87.9688,333.4082 88.3758,333.0292 90.1598,333.1912" id="Fill-390" fill="#FFB359"></path>
            <path d="M98.2721,319.3767 C99.4191,320.7527 104.1401,327.0627 103.7491,327.3887 C103.3571,327.7157 98.0011,321.9357 96.8531,320.5597 C95.7061,319.1827 95.7861,318.6327 96.1771,318.3067 C96.5701,317.9797 97.1251,317.9997 98.2721,319.3767" id="Fill-392" fill="#FFB359"></path>
            <path d="M117.6403,325.3269 C116.8143,326.9169 114.7953,329.5739 114.3423,329.3389 C113.8903,329.1029 115.1753,326.0649 116.0013,324.4749 C116.8273,322.8859 117.3653,322.7459 117.8183,322.9809 C118.2703,323.2169 118.4663,323.7359 117.6403,325.3269" id="Fill-394" fill="#FFB359"></path>
            <path d="M122.8688,333.2888 C121.1608,333.8288 117.8538,334.2798 117.7008,333.7938 C117.5468,333.3078 120.6038,332.0668 122.3118,331.5268 C124.0208,330.9868 124.4998,331.2688 124.6528,331.7558 C124.8068,332.2418 124.5778,332.7478 122.8688,333.2888" id="Fill-396" fill="#FFB359"></path>
            <path d="M120.9371,342.616 C119.3461,341.79 116.6901,339.77 116.9251,339.318 C117.1601,338.865 120.1981,340.15 121.7891,340.976 C123.3781,341.803 123.5171,342.341 123.2821,342.794 C123.0461,343.246 122.5271,343.442 120.9371,342.616" id="Fill-398" fill="#FFB359"></path>
            <path d="M112.9752,347.8445 C112.4342,346.1365 111.9842,342.8295 112.4702,342.6755 C112.9562,342.5225 114.1962,345.5785 114.7362,347.2875 C115.2762,348.9955 114.9942,349.4745 114.5072,349.6285 C114.0212,349.7815 113.5152,349.5535 112.9752,347.8445" id="Fill-400" fill="#FFB359"></path>
            <path d="M103.6481,345.9119 C104.4731,344.3219 106.4931,341.6649 106.9461,341.8999 C107.3981,342.1359 106.1131,345.1739 105.2871,346.7639 C104.4601,348.3529 103.9221,348.4919 103.4701,348.2579 C103.0171,348.0219 102.8221,347.5019 103.6481,345.9119" id="Fill-402" fill="#FFB359"></path>
            <path d="M98.4186,337.95 C100.1276,337.41 103.4336,336.959 103.5876,337.445 C103.7406,337.931 100.6846,339.172 98.9756,339.712 C97.2676,340.252 96.7886,339.97 96.6356,339.483 C96.4816,338.997 96.7106,338.491 98.4186,337.95" id="Fill-404" fill="#FFB359"></path>
            <path d="M100.3512,328.6228 C101.9412,329.4488 104.5982,331.4688 104.3632,331.9208 C104.1272,332.3738 101.0892,331.0888 99.4992,330.2628 C97.9102,329.4358 97.7712,328.8978 98.0062,328.4448 C98.2412,327.9928 98.7612,327.7968 100.3512,328.6228" id="Fill-406" fill="#FFB359"></path>
            <path d="M108.3131,323.3943 C108.8531,325.1023 109.3041,328.4093 108.8181,328.5633 C108.3321,328.7163 107.0921,325.6603 106.5521,323.9513 C106.0111,322.2433 106.2931,321.7643 106.7801,321.6103 C107.2661,321.4573 107.7731,321.6853 108.3131,323.3943" id="Fill-408" fill="#FFB359"></path>
        </g>
    </g>
</svg>